<svg xmlns="http://www.w3.org/2000/svg" width="160" height="160" viewBox="0 0 160 160">
  <defs>
    <linearGradient id="bg" x1="0" x2="1" y1="0" y2="1">
      <stop offset="0" stop-color="rgb(67,158,60)" stop-opacity=".88"/>
      <stop offset="1" stop-color="rgb(43,207,122)" stop-opacity=".88"/>
    </linearGradient>
    <linearGradient id="shirt" x1="0" x2="1">
      <stop offset="0" stop-color="rgb(126,169,232)" stop-opacity=".95"/>
      <stop offset="1" stop-color="rgb(125,150,153)" stop-opacity=".95"/>
    </linearGradient>
    <filter id="soft" x="-20%" y="-20%" width="140%" height="140%">
      <feGaussianBlur stdDeviation="1.6"/>
    </filter>
  </defs>
  <rect width="160" height="160" rx="44" fill="url(#bg)"/>
  <circle cx="80" cy="78" r="44" fill="rgb(235,210,207)" opacity=".96"/>
  <path d="M36 60c6-18 22-30 44-30s38 10 44 28c-10-6-20-10-44-10-22 0-34 4-44 12z" fill="rgb(71,31,45)" opacity=".95"/>
  <circle cx="64" cy="80" r="5" fill="rgba(0,0,0,.70)"/>
  <circle cx="96" cy="80" r="5" fill="rgba(0,0,0,.70)"/>
  <path d="M66 100c10 10 18 10 28 0" stroke="rgba(0,0,0,.55)" stroke-width="4" fill="none" stroke-linecap="round"/>
  
  <path d="M28 160c10-34 34-52 52-52s42 18 52 52" fill="url(#shirt)" opacity=".96"/>
  <path d="M28 160c10-34 34-52 52-52s42 18 52 52" fill="none" stroke="rgba(255,255,255,.18)" stroke-width="2"/>
  <circle cx="80" cy="78" r="44" fill="rgba(255,255,255,.10)" filter="url(#soft)" opacity=".35"/>
</svg>