<svg xmlns="http://www.w3.org/2000/svg" width="160" height="160" viewBox="0 0 160 160">
  <defs>
    <linearGradient id="bg" x1="0" x2="1" y1="0" y2="1">
      <stop offset="0" stop-color="rgb(147,67,224)" stop-opacity=".88"/>
      <stop offset="1" stop-color="rgb(196,178,217)" stop-opacity=".88"/>
    </linearGradient>
    <linearGradient id="shirt" x1="0" x2="1">
      <stop offset="0" stop-color="rgb(133,167,95)" stop-opacity=".95"/>
      <stop offset="1" stop-color="rgb(118,238,174)" stop-opacity=".95"/>
    </linearGradient>
    <filter id="soft" x="-20%" y="-20%" width="140%" height="140%">
      <feGaussianBlur stdDeviation="1.6"/>
    </filter>
  </defs>
  <rect width="160" height="160" rx="44" fill="url(#bg)"/>
  <circle cx="80" cy="78" r="44" fill="rgb(242,210,162)" opacity=".96"/>
  <path d="M32 58c4-20 22-34 48-34s44 14 48 34v16c-8-10-18-14-48-14S40 64 32 74z" fill="rgb(69,73,78)" opacity=".95"/><path d="M30 72c6 24 14 40 30 48-14-4-28-14-34-34 0-6 2-10 4-14z" fill="rgb(69,73,78)" opacity=".88"/><path d="M130 72c-6 24-14 40-30 48 14-4 28-14 34-34 0-6-2-10-4-14z" fill="rgb(69,73,78)" opacity=".88"/>
  <circle cx="64" cy="80" r="5" fill="rgba(0,0,0,.70)"/>
  <circle cx="96" cy="80" r="5" fill="rgba(0,0,0,.70)"/>
  <path d="M66 100c10 10 18 10 28 0" stroke="rgba(0,0,0,.55)" stroke-width="4" fill="none" stroke-linecap="round"/>
  
  <path d="M28 160c10-34 34-52 52-52s42 18 52 52" fill="url(#shirt)" opacity=".96"/>
  <path d="M28 160c10-34 34-52 52-52s42 18 52 52" fill="none" stroke="rgba(255,255,255,.18)" stroke-width="2"/>
  <circle cx="80" cy="78" r="44" fill="rgba(255,255,255,.10)" filter="url(#soft)" opacity=".35"/>
</svg>